<?xml version="1.0" encoding="utf-8"?>
<!-- Generator: Adobe Illustrator 24.3.0, SVG Export Plug-In . SVG Version: 6.00 Build 0)  -->
<svg version="1.1" id="Camada_1" xmlns="http://www.w3.org/2000/svg" xmlns:xlink="http://www.w3.org/1999/xlink" x="0px" y="0px"
	 viewBox="0 0 164 48" style="enable-background:new 0 0 164 48;" xml:space="preserve">
<style type="text/css">
	.st0{clip-path:url(#SVGID_2_);fill:url(#SVGID_3_);}
	.st1{clip-path:url(#SVGID_5_);fill:url(#SVGID_6_);}
	.st2{clip-path:url(#SVGID_8_);fill:url(#SVGID_9_);}
	.st3{clip-path:url(#SVGID_11_);fill:url(#SVGID_12_);}
	.st4{clip-path:url(#SVGID_14_);fill:url(#SVGID_15_);}
	.st5{clip-path:url(#SVGID_17_);fill:url(#SVGID_18_);}
	.st6{clip-path:url(#SVGID_20_);fill:url(#SVGID_21_);}
	.st7{clip-path:url(#SVGID_23_);fill:url(#SVGID_24_);}
	.st8{clip-path:url(#SVGID_26_);fill:url(#SVGID_27_);}
</style>
<g>
	<g>
		<defs>
			<path id="SVGID_1_" d="M85.3,14.3c1.8,0,3.2-1.4,3.2-3.2c0-1.8-1.4-3.2-3.2-3.2v0c0,0,0,0,0,0c-1.8,0-3.2,1.4-3.2,3.2
				C82.1,12.8,83.6,14.3,85.3,14.3z"/>
		</defs>
		<clipPath id="SVGID_2_">
			<use xlink:href="#SVGID_1_"  style="overflow:visible;"/>
		</clipPath>
		<linearGradient id="SVGID_3_" gradientUnits="userSpaceOnUse" x1="-1.7858" y1="1.8393" x2="165.7858" y2="46.74">
			<stop  offset="0" style="stop-color:#910098"/>
			<stop  offset="0.5113" style="stop-color:#D83C64"/>
			<stop  offset="1" style="stop-color:#F9C800"/>
		</linearGradient>
		<rect x="-1.2" y="-0.4" class="st0" width="166.3" height="49.5"/>
	</g>
	<g>
		<defs>
			<path id="SVGID_4_" d="M139.1,14.3c1.8,0,3.2-1.4,3.2-3.2c0-1.8-1.4-3.2-3.2-3.2v0c0,0,0,0,0,0c-1.8,0-3.2,1.4-3.2,3.2
				C135.9,12.8,137.3,14.3,139.1,14.3z"/>
		</defs>
		<clipPath id="SVGID_5_">
			<use xlink:href="#SVGID_4_"  style="overflow:visible;"/>
		</clipPath>
		<linearGradient id="SVGID_6_" gradientUnits="userSpaceOnUse" x1="-1.7858" y1="1.8393" x2="165.7858" y2="46.74">
			<stop  offset="0" style="stop-color:#910098"/>
			<stop  offset="0.5113" style="stop-color:#D83C64"/>
			<stop  offset="1" style="stop-color:#F9C800"/>
		</linearGradient>
		<rect x="-1.2" y="-0.4" class="st1" width="166.3" height="49.5"/>
	</g>
	<g>
		<defs>
			<path id="SVGID_7_" d="M162.7,34.6c-0.7-0.6-1.5-1-2.4-0.9h-6c-0.9,0-1.8-0.3-2.4-0.9c-0.1-0.1-0.1-0.1-0.2-0.2
				c-1.2-1.3-1.1-3.2,0.2-4.4c0.7-0.6,1.5-1,2.4-0.9h2.8c0.9,0,1.8-0.3,2.4-0.9c0.1-0.1,0.1-0.1,0.2-0.2c1.1-1.3,1-3.2-0.2-4.3
				c-0.7-0.6-1.5-1-2.4-0.9h-2.8c-0.9,0-1.8-0.3-2.4-0.9c-0.6-0.6-1-1.4-1-2.3c0-0.9,0.4-1.7,1-2.3c0.7-0.6,1.5-1,2.4-0.9h6
				c0.9,0,1.8-0.3,2.4-0.9c0.1-0.1,0.1-0.1,0.2-0.2c1.2-1.3,1.1-3.2-0.2-4.4c-0.7-0.6-1.5-1-2.4-0.9h-12.5c-2.2,0-3.4,1.2-3.4,3.4
				v25.4c0,2.3,1.2,3.4,3.4,3.4c-0.1,0,8.5,0,12.5,0c0.9,0,1.8-0.3,2.4-0.9c0.1,0,0.1-0.1,0.1-0.1C164,37.7,164,35.7,162.7,34.6z"/>
		</defs>
		<clipPath id="SVGID_8_">
			<use xlink:href="#SVGID_7_"  style="overflow:visible;"/>
		</clipPath>
		<linearGradient id="SVGID_9_" gradientUnits="userSpaceOnUse" x1="-1.7858" y1="1.8393" x2="165.7858" y2="46.74">
			<stop  offset="0" style="stop-color:#910098"/>
			<stop  offset="0.5113" style="stop-color:#D83C64"/>
			<stop  offset="1" style="stop-color:#F9C800"/>
		</linearGradient>
		<rect x="-1.2" y="-0.4" class="st2" width="166.3" height="49.5"/>
	</g>
	<g>
		<defs>
			<path id="SVGID_10_" d="M129.8,23.2c-1-0.6-2.1-1.1-3.2-1.5c-1-0.3-1.6-0.5-1.9-0.6c-0.7-0.3-1.5-0.6-2.1-1.1
				c-0.9-0.6-1.4-1.5-1.4-2.6c0-0.9,0.3-1.7,1-2.3c0,0,0.1-0.1,0.1-0.1c1.3-1.2,3.3-1.2,4.5,0.1c0.3,0.3,0.5,0.6,0.7,1
				c1.2,2.6,7.5,1.7,6.1-2.1c-0.5-1.3-1.3-2.5-2.3-3.5c-1.8-1.8-4.3-2.8-6.8-2.8c-5.3,0-9.7,4.3-9.7,9.7c-0.1,1.6,0.4,3.1,1.3,4.4
				c0.8,1.1,1.8,2.1,2.9,2.9l0,0c1,0.7,2,1.2,3.1,1.6c1,0.3,1.6,0.5,1.8,0.6c0.4,0.1,1.1,0.4,2.2,0.8c1.1,0.4,1.6,1.3,1.6,2.6
				c0,0.9-0.3,1.7-0.9,2.3c-1.3,1.3-3.3,1.3-4.6,0c-0.3-0.3-0.5-0.7-0.7-1.1c-1.1-2.6-7.6-1.7-6.1,2.1c0.5,1.3,1.3,2.5,2.3,3.5
				c1.8,1.8,4.3,2.9,6.9,2.8c2.6,0,5-1,6.8-2.8c1.8-1.8,2.9-4.3,2.8-6.9c0-1.8-0.4-3.3-1.3-4.4C132,24.8,130.9,23.9,129.8,23.2z"/>
		</defs>
		<clipPath id="SVGID_11_">
			<use xlink:href="#SVGID_10_"  style="overflow:visible;"/>
		</clipPath>
		<linearGradient id="SVGID_12_" gradientUnits="userSpaceOnUse" x1="-1.7858" y1="1.8393" x2="165.7858" y2="46.74">
			<stop  offset="0" style="stop-color:#910098"/>
			<stop  offset="0.5113" style="stop-color:#D83C64"/>
			<stop  offset="1" style="stop-color:#F9C800"/>
		</linearGradient>
		<rect x="-1.2" y="-0.4" class="st3" width="166.3" height="49.5"/>
	</g>
	<g>
		<defs>
			<path id="SVGID_13_" d="M141.1,16.2c-1.3-1.1-3.2-1-4.4,0.2c-0.6,0.7-1,1.5-0.9,2.4c0,6,0,12,0,18.1c0,0.9,0.3,1.8,0.9,2.4
				c0.1,0.1,0.1,0.1,0.2,0.2c1.3,1.1,3.2,1,4.4-0.2c0.6-0.7,1-1.5,0.9-2.4V18.8c0-0.9-0.3-1.8-0.9-2.4
				C141.3,16.3,141.2,16.2,141.1,16.2z"/>
		</defs>
		<clipPath id="SVGID_14_">
			<use xlink:href="#SVGID_13_"  style="overflow:visible;"/>
		</clipPath>
		<linearGradient id="SVGID_15_" gradientUnits="userSpaceOnUse" x1="-1.7858" y1="1.8393" x2="165.7858" y2="46.74">
			<stop  offset="0" style="stop-color:#910098"/>
			<stop  offset="0.5113" style="stop-color:#D83C64"/>
			<stop  offset="1" style="stop-color:#F9C800"/>
		</linearGradient>
		<rect x="-1.2" y="-0.4" class="st4" width="166.3" height="49.5"/>
	</g>
	<g>
		<defs>
			<path id="SVGID_16_" d="M87.4,16.2c-1.3-1.1-3.2-1-4.4,0.2c-0.6,0.7-1,1.5-0.9,2.4c0,6,0,12,0,18.1c0,0.9,0.3,1.8,0.9,2.4
				c0.1,0.1,0.1,0.1,0.2,0.2c1.3,1.1,3.2,1,4.4-0.2c0.6-0.7,1-1.5,0.9-2.4V18.8c0-0.9-0.3-1.8-0.9-2.4
				C87.6,16.3,87.5,16.2,87.4,16.2z"/>
		</defs>
		<clipPath id="SVGID_17_">
			<use xlink:href="#SVGID_16_"  style="overflow:visible;"/>
		</clipPath>
		<linearGradient id="SVGID_18_" gradientUnits="userSpaceOnUse" x1="-1.7858" y1="1.8393" x2="165.7858" y2="46.74">
			<stop  offset="0" style="stop-color:#910098"/>
			<stop  offset="0.5113" style="stop-color:#D83C64"/>
			<stop  offset="1" style="stop-color:#F9C800"/>
		</linearGradient>
		<rect x="-1.2" y="-0.4" class="st5" width="166.3" height="49.5"/>
	</g>
	<g>
		<defs>
			<path id="SVGID_19_" d="M101.9,8.1h-8.1c-1.9,0-3.2,1.6-3.2,3.4c0,8.9,0,17.6,0,26.6c0,2,0.1,2.3,1.7,2.3c0.1,0,1.6,0,1.6,0
				c1.9,0,3.2-1.6,3.2-3.4v-2.8c0-0.9,0.2-1.7,0.7-2.4c0.4-0.6,1-1,1.7-1h2.4c6.2,0,11.3-5.1,11.2-11.3
				C113.1,13.1,108.1,8.1,101.9,8.1z M105.2,22.5L105.2,22.5c-0.9,0.9-2.1,1.4-3.4,1.4h-2.4c-1.3,0-2.4-1.1-2.4-2.4v-4.8
				c0-1.3,1.1-2.4,2.4-2.4h2.4c1.3,0,2.5,0.5,3.4,1.4c0.9,0.9,1.4,2.1,1.4,3.4C106.7,20.4,106.1,21.6,105.2,22.5z"/>
		</defs>
		<clipPath id="SVGID_20_">
			<use xlink:href="#SVGID_19_"  style="overflow:visible;"/>
		</clipPath>
		<linearGradient id="SVGID_21_" gradientUnits="userSpaceOnUse" x1="-1.7858" y1="1.8393" x2="165.7858" y2="46.74">
			<stop  offset="0" style="stop-color:#910098"/>
			<stop  offset="0.5113" style="stop-color:#D83C64"/>
			<stop  offset="1" style="stop-color:#F9C800"/>
		</linearGradient>
		<rect x="-1.2" y="-0.4" class="st6" width="166.3" height="49.5"/>
	</g>
	<g>
		<defs>
			<path id="SVGID_22_" d="M77.7,7.8c-2.2,0-4.2,1.3-5,3.4c-1.2,2.9-2.4,5.8-3.6,8.8c-0.4,0.9-0.8,1.4-1.4,1.4c-0.5,0-1-0.5-1.4-1.4
				l-3.6-8.8c-0.4-0.9-0.8-1.4-1.4-1.4c-0.5,0-1,0.5-1.4,1.4l-3.6,8.8c-0.4,0.9-0.8,1.4-1.4,1.4c-0.5,0-1-0.5-1.4-1.4
				c-1.2-2.9-2.4-5.8-3.6-8.8c-0.9-2.2-2.5-3.4-5-3.4h-3.5c-3.6,0-3.6,6.5,0.4,6.5v0c1.7,0,2.2,0.3,2.9,2.1c3,7.4,5.9,14.9,8.9,22.3
				c0.4,0.9,0.8,1.4,1.3,1.4c0.5,0,1-0.5,1.4-1.4c1.2-3,2.4-6.1,3.6-9.1c0.4-0.9,0.8-1.4,1.4-1.4c0.5,0,1,0.5,1.3,1.4
				c1.2,3.1,2.4,6.1,3.7,9.2c0.4,0.9,0.8,1.4,1.4,1.4c0.5,0,1-0.5,1.4-1.4c3.7-9.2,7.3-18.3,11-27.5C80.9,9.2,79.8,7.8,77.7,7.8z"/>
		</defs>
		<clipPath id="SVGID_23_">
			<use xlink:href="#SVGID_22_"  style="overflow:visible;"/>
		</clipPath>
		<linearGradient id="SVGID_24_" gradientUnits="userSpaceOnUse" x1="-1.7858" y1="1.8393" x2="165.7858" y2="46.74">
			<stop  offset="0" style="stop-color:#910098"/>
			<stop  offset="0.5113" style="stop-color:#D83C64"/>
			<stop  offset="1" style="stop-color:#F9C800"/>
		</linearGradient>
		<rect x="-1.2" y="-0.4" class="st7" width="166.3" height="49.5"/>
	</g>
	<g>
		<defs>
			<path id="SVGID_25_" d="M19.2,5.1C8.8,5.1,0.3,13.6,0.3,24c0,0,0,0,0,0c0,10.4,8.5,18.9,18.9,18.9c10.4,0,18.9-8.5,18.9-18.9
				C38.1,13.6,29.6,5.1,19.2,5.1z M26.6,29.4c-0.6,0.7-7.4,9.7-7.4,9.7l0,0h0l0,0l-7.4-9.7c-0.1-0.2-0.2-0.4,0.2-0.4
				c2.9,0.1,5.4-2.1,5.5-5c0-2.1-1.2-4-3-4.9c-0.1-0.1-0.3-0.2,0-0.4c1.2-0.5,5-1.5,3.5-7.9c-0.4-2.8,3-2.6,2.6,0
				c-1.3,5.4,1.4,6.9,3.6,7.9c0.3,0.1,0.1,0.3,0,0.4c-1.9,0.9-2.9,2.2-3.1,4.8c0,3.5,3,5.3,5.5,5.1C26.8,29,26.8,29.3,26.6,29.4z"/>
		</defs>
		<clipPath id="SVGID_26_">
			<use xlink:href="#SVGID_25_"  style="overflow:visible;"/>
		</clipPath>
		<linearGradient id="SVGID_27_" gradientUnits="userSpaceOnUse" x1="-1.7858" y1="1.8393" x2="165.7858" y2="46.74">
			<stop  offset="0" style="stop-color:#910098"/>
			<stop  offset="0.5113" style="stop-color:#D83C64"/>
			<stop  offset="1" style="stop-color:#F9C800"/>
		</linearGradient>
		<rect x="-1.2" y="-0.4" class="st8" width="166.3" height="49.5"/>
	</g>
</g>
</svg>
